# xmcd CD database file
#
# Track frame offsets:
#	150
#	21775
#	50565
#	71390
#	98672
#	115900
#	138525
#	156360
#	185740
#	205615
#
# Disc length: 3022 seconds
#
# Revision: 0
# Processed by: cddbd v1.5.1PL2 Copyright (c) Steve Scherf et al.
# Submitted via: CDex 1.50
#
DISCID=890bcc0a
DTITLE=Genta Utsumi - Rydeen Electone
DYEAR=2001
DGENRE=New Age
TTITLE0=RYDEEN
TTITLE1=TONG POO
TTITLE2=BEHIND THE MASK
TTITLE3=LA FEMME CHINOIS
TTITLE4=COSMIC SURFIN'
TTITLE5=FIRE CRACKER
TTITLE6=SOLID STATE SURVIVOR
TTITLE7=SIMOON
TTITLE8=ABSOLUTE EGO DANCE
TTITLE9=TECHNOPOLIS
EXTD=YEAR: 2001
EXTT0=
EXTT1=
EXTT2=
EXTT3=
EXTT4=
EXTT5=
EXTT6=
EXTT7=
EXTT8=
EXTT9=
PLAYORDER=
